<svg width="60" height="60" viewBox="0 0 60 60" fill="none" xmlns="http://www.w3.org/2000/svg">
<rect width="60" height="60" rx="10" fill="#D9D9D9"/>
<path d="M32.7436 22.7304C32.0177 22.7936 31.1791 22.8568 30.3406 22.9805C29.0565 23.1618 27.7724 23.4091 26.7119 23.9596C24.6461 24.8838 23.2493 26.8466 23.2493 29.7327C23.2493 33.357 25.372 35.1953 28.0511 35.1953C28.9464 35.1953 29.6714 35.0753 30.3406 34.8903C31.4036 34.5221 32.2972 33.8461 33.3577 32.6206C33.9735 33.5411 34.1395 33.9716 35.2016 34.9535C35.4803 35.0772 35.759 35.0772 35.9826 34.8921C36.6526 34.2794 37.824 33.1739 38.4398 32.5602C38.7176 32.3119 38.6626 31.9465 38.4957 31.6378C37.8799 30.7787 37.2675 30.0404 37.2675 28.3854V22.8596C37.2675 20.523 37.4327 18.3761 35.8725 16.7815C34.5867 15.4881 32.5767 15 31.0148 15C30.7912 15 30.5684 15 30.344 15C27.4963 15.1832 24.4817 16.5314 23.81 20.4031C23.6999 20.8912 24.0362 21.0781 24.259 21.1404L27.3853 21.5718C27.7207 21.5067 27.8876 21.2018 27.9427 20.8931C28.2247 19.5458 29.2284 18.8698 30.3448 18.7462C30.4016 18.7462 30.4575 18.7462 30.5693 18.7462C31.2384 18.7462 31.9635 19.0549 32.3557 19.6639C32.7986 20.4031 32.7461 21.3868 32.7461 22.2441L32.7436 22.7304ZM32.1295 30.0367C31.739 30.8968 31.0682 31.4491 30.3423 31.6341C30.2313 31.6341 30.0653 31.6973 29.8967 31.6973C28.6686 31.6973 27.9401 30.6532 27.9401 29.1172C27.9401 27.1553 29.0023 26.2311 30.3423 25.8024C31.0682 25.6192 31.9067 25.556 32.7444 25.556V26.2934C32.7436 27.7066 32.7961 28.8103 32.1295 30.0367ZM45 38.5621V38.762C44.9704 39.9623 44.3935 42.2655 43.0281 43.5328C42.7554 43.7652 42.4818 43.6323 42.6021 43.2966C42.9993 42.232 43.9073 39.7606 43.483 39.1943C43.1823 38.762 41.9363 38.7945 40.875 38.8949C40.3905 38.9619 39.9645 38.9926 39.6307 39.0651C39.3283 39.0958 39.2657 38.7982 39.5706 38.5658C39.9653 38.2655 40.3914 38.033 40.8758 37.8629C42.6029 37.2975 44.6078 37.6304 44.8814 37.9986C44.9407 38.0934 45 38.2934 45 38.5621ZM42.1184 40.8959C41.7237 41.2278 41.3011 41.53 40.875 41.8006C37.6894 43.9028 33.5644 45 29.9857 45C24.22 45 19.0633 42.6643 15.1509 38.762C14.8155 38.4607 15.0891 38.0284 15.4838 38.2608C19.7003 40.9628 24.9179 42.5993 30.3177 42.5993C33.7168 42.5993 37.3836 41.8982 40.8742 40.3947C41.1156 40.298 41.3891 40.1604 41.6322 40.0637C42.1786 39.7931 42.6648 40.4654 42.1184 40.8959Z" fill="black"/>
</svg>
