<svg width="60" height="60" viewBox="0 0 60 60" fill="none" xmlns="http://www.w3.org/2000/svg">
<rect width="60" height="60" rx="10" fill="#D9D9D9"/>
<path d="M36.4006 12C36.472 12 36.5434 12 36.6188 12C36.7938 14.1157 35.9684 15.6965 34.9652 16.8413C33.9809 17.9781 32.633 19.0808 30.4529 18.9135C30.3075 16.8281 31.1343 15.3645 32.1361 14.2224C33.0652 13.158 34.7686 12.2108 36.4006 12Z" fill="black"/>
<path d="M43 34.0207C43 34.0418 43 34.0602 43 34.08C42.3873 35.8953 41.5134 37.4511 40.4469 38.8949C39.4734 40.2057 38.2804 41.9696 36.1501 41.9696C34.3094 41.9696 33.0867 40.8117 31.2002 40.78C29.2046 40.7484 28.1072 41.7483 26.2826 41.9999C26.0739 41.9999 25.8652 41.9999 25.6605 41.9999C24.3207 41.8102 23.2394 40.7721 22.4517 39.8368C20.1289 37.073 18.3339 33.503 18 28.9344C18 28.4865 18 28.04 18 27.5921C18.1414 24.3224 19.7653 21.664 21.9238 20.3756C23.063 19.6906 24.6291 19.107 26.3728 19.3678C27.1202 19.4811 27.8837 19.7314 28.5529 19.9791C29.1871 20.2175 29.9802 20.6404 30.7316 20.618C31.2406 20.6035 31.7469 20.344 32.2599 20.1609C33.7627 19.63 35.2358 19.0214 37.1775 19.3072C39.5111 19.6524 41.1673 20.6668 42.1907 22.2318C40.2167 23.4608 38.656 25.313 38.9227 28.476C39.1596 31.3491 40.8671 33.0301 43 34.0207Z" fill="black"/>
</svg>
