<svg width="60" height="60" viewBox="0 0 60 60" fill="none" xmlns="http://www.w3.org/2000/svg">
<rect width="60" height="60" rx="10" fill="#D9D9D9"/>
<path d="M29.9584 13.9583C25.9801 13.9583 22.1648 15.5386 19.3518 18.3517C16.5387 21.1647 14.9584 24.98 14.9584 28.9583C14.9584 32.9365 16.5387 36.7518 19.3518 39.5649C22.1648 42.3779 25.9801 43.9583 29.9584 43.9583C33.9366 43.9583 37.7519 42.3779 40.565 39.5649C43.378 36.7518 44.9584 32.9365 44.9584 28.9583C44.9584 24.98 43.378 21.1647 40.565 18.3517C37.7519 15.5386 33.9366 13.9583 29.9584 13.9583Z" fill="#039BE5"/>
<path d="M32.0361 32.9867H35.9288L36.5399 29.0324H32.0354V26.8711C32.0354 25.2284 32.5721 23.7717 34.1087 23.7717H36.5779V20.3209C36.1441 20.2623 35.2266 20.134 33.4928 20.134C29.8725 20.134 27.7501 22.0459 27.7501 26.4017V29.0324H24.0284V32.9867H27.7501V43.8555C28.4871 43.9664 29.2336 44.0416 30 44.0416C30.6927 44.0416 31.3688 43.9782 32.0361 43.888V32.9867Z" fill="white"/>
</svg>
