<svg width="60" height="60" viewBox="0 0 60 60" fill="none" xmlns="http://www.w3.org/2000/svg">
<rect width="60" height="60" rx="10" fill="#D9D9D9"/>
<path d="M45 30.3597C45 29.3467 44.9 28.3009 44.7332 27.3206H30.2959V33.1048H38.5649C38.2314 34.9675 37.1311 36.6014 35.4973 37.6472L40.432 41.4053C43.3329 38.7582 45 34.9021 45 30.3597Z" fill="#4280EF"/>
<path d="M30.2957 45C34.4302 45 37.8978 43.6601 40.4319 41.3726L35.4972 37.6472C34.1301 38.5622 32.3629 39.085 30.2957 39.085C26.2946 39.085 22.927 36.438 21.6933 32.9087L16.6252 36.7321C19.226 41.7974 24.4941 45 30.2957 45Z" fill="#34A353"/>
<path d="M21.6935 32.876C21.06 31.0133 21.06 28.9872 21.6935 27.1244L16.6255 23.2683C14.4582 27.5166 14.4582 32.5165 16.6255 36.7321L21.6935 32.876Z" fill="#F6B704"/>
<path d="M30.2958 20.9482C32.4631 20.9155 34.597 21.7325 36.1641 23.203L40.532 18.8894C37.7646 16.3404 34.0969 14.9679 30.2958 15.0006C24.4942 15.0006 19.2261 18.2031 16.6254 23.2684L21.6934 27.1245C22.9271 23.5625 26.2947 20.9482 30.2958 20.9482Z" fill="#E54335"/>
</svg>
