<svg width="60" height="60" viewBox="0 0 60 60" fill="none" xmlns="http://www.w3.org/2000/svg">
<rect width="60" height="60" rx="10" fill="#D9D9D9"/>
<g clip-path="url(#clip0_3_159)">
<path d="M32.3597 15.0886L32.348 21.6892L32.3362 28.2898L31.794 26.7575V26.7536L31.0907 41.4477C31.7822 43.3965 32.1515 44.4376 32.1554 44.4416C32.1594 44.4455 32.5523 44.4691 33.0277 44.4927C34.4656 44.5634 36.2494 44.7166 37.6048 44.8855C37.9192 44.9248 38.1863 44.9445 38.206 44.9288C38.2256 44.913 38.2295 38.1946 38.2256 29.9949L38.2138 15.0886H32.3597Z" fill="#B1060F" stroke="black" stroke-width="0.29074"/>
<path d="M21.7714 15.0689V29.9909C21.7714 38.1984 21.7792 44.9208 21.791 44.9326C21.8028 44.9444 22.3096 44.8933 22.9225 44.8265C23.5354 44.7597 24.3802 44.6733 24.8006 44.6379C25.4449 44.5829 27.3779 44.4611 27.5979 44.4572C27.6647 44.4572 27.6687 44.1232 27.6765 38.1356L27.6883 31.8139L28.1559 33.134C28.2266 33.3383 28.2501 33.4012 28.3209 33.6016L29.0241 18.9114C28.8748 18.491 28.9534 18.711 28.7845 18.2317C28.2109 16.609 27.7237 15.2378 27.704 15.175L27.6647 15.0649H21.7714V15.0689Z" fill="#B1060F" stroke="black" stroke-width="0.29074"/>
<path d="M32.3597 15.0886L32.348 21.6892L32.3362 28.2898L31.794 26.7575V26.7536L31.0907 41.4477C31.7822 43.3965 32.1515 44.4376 32.1554 44.4416C32.1594 44.4455 32.5523 44.4691 33.0277 44.4927C34.4656 44.5634 36.2494 44.7166 37.6048 44.8855C37.9192 44.9248 38.1863 44.9445 38.206 44.9288C38.2256 44.913 38.2295 38.1946 38.2256 29.9949L38.2138 15.0886H32.3597Z" fill="#B1060F" stroke="black" stroke-width="0.29074"/>
<path d="M21.7714 15.0689V29.9909C21.7714 38.1984 21.7792 44.9208 21.791 44.9326C21.8028 44.9444 22.3096 44.8933 22.9225 44.8265C23.5354 44.7597 24.3802 44.6733 24.8006 44.6379C25.4449 44.5829 27.3779 44.4611 27.5979 44.4572C27.6647 44.4572 27.6687 44.1232 27.6765 38.1356L27.6883 31.8139L28.1559 33.134C28.2266 33.3383 28.2501 33.4012 28.3209 33.6016L29.0241 18.9114C28.8748 18.491 28.9534 18.711 28.7845 18.2317C28.2109 16.609 27.7237 15.2378 27.704 15.175L27.6647 15.0649H21.7714V15.0689Z" fill="#B1060F" stroke="black" stroke-width="0.29074"/>
<path d="M21.7714 15.0689V23.4453L27.6726 39.0981C27.6726 38.7406 27.6726 38.5442 27.6765 38.1356L27.6883 31.8139L28.1559 33.134C30.7489 40.489 32.1437 44.4336 32.1516 44.4415C32.1555 44.4454 32.5484 44.469 33.0238 44.4925C34.4618 44.5633 36.2455 44.7165 37.601 44.8854C37.9153 44.9247 38.1825 44.9444 38.2021 44.9287C38.2139 44.9169 38.2217 41.6244 38.2217 36.9765L32.3519 20.09L32.348 21.6891L32.3362 28.2897L31.794 26.7574C31.2636 25.2605 30.91 24.2586 28.7766 18.2317C28.203 16.609 27.7158 15.2378 27.6962 15.175L27.6569 15.0649H21.7714V15.0689Z" fill="url(#paint0_radial_3_159)"/>
<path d="M21.7714 15.0689L27.6844 31.8257V31.8179L28.1519 33.138C30.7489 40.489 32.1437 44.4336 32.1516 44.4415C32.1555 44.4454 32.5484 44.469 33.0238 44.4925C34.4618 44.5633 36.2455 44.7165 37.601 44.8854C37.9114 44.9247 38.1825 44.9444 38.1982 44.9287L32.3362 28.2858V28.2897L31.794 26.7574C31.2636 25.2605 30.91 24.2586 28.7766 18.2317C28.203 16.609 27.7158 15.2378 27.6962 15.175L27.6569 15.0649H24.7141L21.7714 15.0689Z" fill="#E50914"/>
</g>
<defs>
<radialGradient id="paint0_radial_3_159" cx="0" cy="0" r="1" gradientUnits="userSpaceOnUse" gradientTransform="translate(29.7211 29.8263) rotate(-19.1007) scale(1.08418 39.715)">
<stop/>
<stop offset="1" stop-opacity="0"/>
</radialGradient>
<clipPath id="clip0_3_159">
<rect width="30" height="30" fill="white" transform="translate(15 15)"/>
</clipPath>
</defs>
</svg>
