<svg width="250" height="80" viewBox="0 0 250 80" fill="none" xmlns="http://www.w3.org/2000/svg">
<path d="M25.6819 11.7443C20.5479 11.903 14.8873 12.5378 13.3076 13.0139C14.8873 12.5378 20.5479 11.903 25.6819 11.7443ZM28.8413 20.6318H25.9452C25.6819 22.0602 25.5503 23.4886 25.4186 24.9169L23.3124 40.3114H26.8667C31.4742 40.3114 34.8969 35.709 34.8969 28.7259C34.8969 23.806 32.5273 20.6318 28.8413 20.6318ZM68.0707 37.296C65.9644 37.296 64.5163 42.2159 63.7265 46.1836H64.9112C67.5441 46.1836 69.6504 44.1204 69.9136 41.5811V40.6289C69.9136 39.8353 69.782 39.0418 69.3871 38.407C69.2554 37.7721 68.7289 37.296 68.0707 37.296ZM136.919 37.9308C136.788 37.9308 136.788 37.7721 136.656 37.7721C136.525 37.6134 136.261 37.6134 136.13 37.6134C135.735 37.6134 135.34 37.7721 135.076 38.0896C134.945 38.2483 134.813 38.2483 134.682 38.407C134.55 38.5657 134.55 38.7244 134.418 38.7244C133.76 39.8353 133.233 40.9463 132.97 42.2159C132.839 42.3746 132.839 42.692 132.707 43.0095C132.444 43.803 132.312 44.7552 132.049 45.5488L131.654 47.6119C131.39 49.8338 131.127 52.2144 131.127 54.595L131.259 58.0866C131.238 58.3608 131.284 58.6364 131.39 58.8801L131.785 60.7846L132.18 61.7368C132.575 62.689 132.97 63.1652 133.497 63.1652C133.76 63.1652 133.892 63.1652 134.155 63.0065C134.418 62.8478 134.682 62.6891 134.945 62.3716C135.735 61.2607 136.525 59.3562 137.183 56.8169L137.578 54.9124L137.973 52.5318L138.236 49.199C138.368 48.0881 138.368 47.1358 138.368 46.0249C138.499 43.803 138.236 41.4224 137.578 39.2005C137.578 38.8831 137.314 38.2483 136.919 37.9308M237.757 51.897L238.416 46.501C241.312 46.1836 243.55 45.5488 245.261 44.1204C247.367 42.5333 250 39.5179 250 33.6458C250 30.4716 249.342 27.4562 248.157 24.7582C246.841 21.9015 244.339 20.1557 241.707 20.1557H241.312C241.18 15.3945 237.889 11.7443 233.94 11.5856C230.254 11.5856 226.568 11.903 223.013 12.5378C219.854 13.1726 217.353 16.6642 216.826 20.4731C216.826 20.6318 208.401 20.4731 202.872 20.4731C198.528 20.4731 196.29 23.0124 196.29 23.0124C196.29 23.0124 194.184 19.6796 188.523 20.4731C185.759 20.6318 183.126 21.108 180.361 21.7428C180.888 17.6164 181.283 13.4901 181.414 9.36368V9.04627C181.414 4.12637 178.123 0.158706 174.043 0C168.645 0 162.458 0.952239 159.299 1.74577C155.876 2.85672 153.506 6.66567 153.638 10.9507C153.77 14.7597 152.322 26.1866 152.322 26.1866C148.899 22.695 144.291 20.7906 139.026 20.7906C134.287 20.7906 129.548 22.0602 125.335 24.7582C123.887 22.8537 121.781 21.5841 119.674 21.7428C115.462 21.7428 112.302 21.7428 109.275 22.0602C106.905 22.2189 104.799 23.806 103.482 26.3453C103.351 26.1866 103.351 26.0279 103.219 25.8692C101.903 23.0124 99.4015 21.2667 96.7686 21.2667C91.2397 21.2667 81.6298 23.1711 81.2349 23.4886C77.9438 21.7428 74.3895 20.7905 70.7035 20.9493C65.3062 20.7905 60.0405 22.5363 55.5647 25.8692C54.7748 12.3791 45.1649 3.17413 31.4742 3.17413C31.4742 3.17413 14.7556 3.96766 11.7279 4.76119C8.17352 5.71343 5.67232 9.68109 5.9356 13.9662C5.9356 16.9816 5.80396 20.1557 5.27739 23.4886L0.406637 61.2607C0.0117107 63.4826 -0.909784 70.307 2.64455 75.3856C4.09261 77.4488 6.72546 79.8293 11.3329 79.8293C13.4392 79.8293 19.0998 79.5119 23.7073 76.9726C24.8921 76.3378 25.9452 75.2269 26.735 73.9572C29.2362 77.4488 32.9222 79.9881 38.3196 79.9881C43.0587 79.9881 47.6661 78.5597 51.8787 76.0204C55.6963 78.7184 60.0405 80.1468 64.5163 79.9881C72.5465 79.9881 80.0501 76.1791 84.7892 69.6721C87.422 77.7662 92.2928 79.6706 96.2421 79.6706C99.5331 79.6706 103.482 79.1945 107.432 76.8139C110.723 74.9094 112.171 68.4025 112.829 66.9741C116.12 74.9095 122.702 79.8293 130.996 79.8293C137.578 79.8293 144.028 77.2901 149.294 72.2114C149.689 73.005 150.084 73.6398 150.479 74.2746C152.19 76.6552 155.481 79.5119 161.142 79.5119C165.223 79.6706 169.303 78.2423 172.594 75.5443C174.437 77.7662 177.465 79.8293 182.073 79.8293C185.495 79.8293 188.918 78.7184 191.946 76.8139C194.184 78.7184 197.08 79.6706 200.503 79.6706C205.9 79.6706 210.771 77.4488 213.93 73.4811C216.563 76.6552 221.17 79.8293 229.069 79.8293C236.309 79.8293 243.55 74.2746 247.236 66.8154C250.132 61.2607 246.972 51.4209 237.757 51.897M48.0611 28.5672C47.6661 35.5502 43.9802 41.2637 38.3196 44.9139L43.4536 61.2607C44.9017 65.7045 45.8232 67.4502 47.4029 68.8786C47.0079 69.196 46.613 69.3547 46.2181 69.5134C43.7169 70.4657 40.9524 71.1005 38.3196 70.9418C35.6867 70.9418 32.1324 70.1483 29.8945 62.3716L26.0768 49.0403H22.2592L20.5479 61.7368C20.2846 63.1652 20.1529 64.5935 20.1529 66.0219V66.3393C20.1529 67.1328 20.2846 67.9264 20.5479 68.7199C17.6517 70.307 13.7025 70.7831 11.3329 70.7831C9.3583 70.7831 7.51531 69.9896 7.38367 65.8632C7.38367 64.7522 7.51531 63.6413 7.64695 62.5303L12.5177 24.7582C12.9126 21.9015 13.1759 18.8861 13.1759 16.0294V13.0139C14.7556 12.5378 20.4162 11.7443 25.5503 11.7443H31.2109C34.6336 11.5856 37.9246 12.5378 41.084 14.1249C41.8739 14.601 42.7954 15.2358 43.4536 15.8706C44.1118 16.5055 44.77 17.299 45.4282 18.0925C46.2181 19.3622 46.8763 20.6318 47.4029 22.2189C47.7978 23.806 48.0611 25.393 48.0611 27.1388V28.5672M66.8859 53.9602C66.3593 53.9602 65.8327 54.1189 65.4378 54.1189H63.3315V55.0711C63.5948 59.5149 65.1745 63.3239 68.5972 63.3239H69.3871C72.6781 62.8478 74.6528 59.991 76.3641 59.991C77.154 60.1497 77.9438 60.4672 78.602 60.9433L80.3134 62.2129C79.1286 64.2761 77.6805 66.0219 75.8375 67.2915C72.4148 69.9895 68.4656 71.2592 64.3847 71.2592C55.6963 71.2592 50.4306 65.3871 50.0357 56.0234V54.4363C50.0357 42.5333 56.4862 29.5194 70.8351 29.5194C72.9414 29.5194 75.0477 29.8368 76.8907 30.6303C80.3134 32.0587 82.288 35.0741 82.288 39.0418C82.4196 43.803 79.9184 52.5318 66.8859 53.9602M106.773 61.5781C105.589 63.9587 104.536 66.498 103.746 69.196C101.376 70.6244 98.7433 70.9418 96.1104 70.9418C93.8725 70.9418 91.7662 69.6721 90.7131 62.6891L87.422 42.8507C86.7638 38.8831 85.7107 34.9154 84.3943 31.1065C85.5791 30.7891 86.7638 30.4716 87.9486 30.3129C88.2119 30.3129 88.4752 30.1542 88.7385 30.1542H88.8701C89.1334 30.1542 89.3967 30.1542 89.7916 29.9955H89.9232C90.5815 29.9955 91.2397 29.8368 92.0295 29.8368H96.9003C97.4268 31.1065 97.9534 32.3761 98.3483 33.6458C98.48 34.1219 98.6116 34.4393 98.7433 34.9154C99.0065 35.8677 99.1382 36.8199 99.2698 37.7721L101.508 55.8647C103.351 51.5796 105.062 47.1358 106.642 42.692C107.695 39.6766 108.616 36.6612 109.275 33.4871C109.538 32.3761 109.67 31.4239 109.933 30.3129C110.723 30.1542 111.513 30.1542 112.302 30.1542H119.674C119.411 32.8522 118.884 35.3915 117.963 37.9308C114.804 46.0249 110.854 53.8015 106.773 61.5781M147.714 61.7368C146.529 63.6413 145.081 65.2284 143.502 66.498C143.238 66.8154 142.843 66.9741 142.58 67.2915C142.58 67.2915 142.448 67.2915 142.448 67.4503C142.185 67.609 141.922 67.9264 141.659 68.0851C141.659 68.0851 141.527 68.0851 141.527 68.2438C141.264 68.4025 141 68.5612 140.605 68.7199C140.605 68.7199 140.474 68.7199 140.474 68.8786C140.079 69.0373 139.816 69.196 139.421 69.3547C138.762 69.6721 137.973 69.9895 137.183 70.307C137.051 70.307 137.051 70.307 136.919 70.4657C136.656 70.6244 136.393 70.6244 136.13 70.7831C135.998 70.7831 135.866 70.7831 135.735 70.9418C135.471 70.9418 135.208 71.1005 134.945 71.1005C134.813 71.1005 134.682 71.1005 134.55 71.2592C134.287 71.2592 134.023 71.4179 133.76 71.4179H129.021C128.758 71.4179 128.363 71.2592 128.099 71.2592C127.968 71.2592 127.705 71.1005 127.573 71.1005C127.31 71.1005 127.046 70.9418 126.783 70.9418C126.651 70.9418 126.388 70.7831 126.256 70.7831C125.993 70.6244 125.73 70.6244 125.598 70.4657C125.467 70.307 125.203 70.307 125.072 70.1483C124.808 69.9896 124.677 69.9896 124.413 69.8308C124.282 69.6721 124.019 69.6721 123.887 69.5134C123.755 69.3547 123.492 69.196 123.36 69.0373C123.229 68.8786 123.097 68.7199 122.834 68.7199C122.702 68.5612 122.439 68.4025 122.307 68.2438L120.727 66.3393C120.596 66.1806 120.464 66.0219 120.333 65.7045C120.201 65.5458 120.069 65.3871 119.938 65.0697C119.799 64.8947 119.707 64.6735 119.674 64.4348C119.543 64.2761 119.543 63.9587 119.411 63.8C119.279 63.6413 119.279 63.3239 119.148 63.1652C119.016 63.0065 119.016 62.689 118.885 62.5303C118.753 62.2129 118.753 62.0542 118.621 61.7368C118.621 61.5781 118.49 61.2607 118.49 61.102C118.49 60.7846 118.358 60.6259 118.358 60.3085C118.358 60.1498 118.226 59.8323 118.226 59.6736C118.095 58.8801 117.963 58.0866 117.963 57.293V55.3886C117.963 46.501 121.386 39.0418 126.651 34.598C127.573 33.8045 128.363 33.1697 129.416 32.6935C130.337 32.2174 131.39 31.7413 132.312 31.2652H132.444C132.97 31.1065 133.365 30.9478 133.892 30.7891H134.023C134.55 30.6303 134.945 30.6303 135.471 30.4716H135.603C136.13 30.3129 136.656 30.3129 137.051 30.3129H140.737C141.132 30.3129 141.395 30.4716 141.79 30.4716H142.054C142.448 30.6303 142.843 30.6303 143.238 30.7891C143.37 30.7891 143.502 30.9478 143.633 30.9478C143.896 31.1065 144.16 31.1065 144.423 31.2652C144.555 31.2652 144.686 31.4239 144.818 31.4239C145.081 31.5826 145.476 31.7413 145.739 31.9C145.871 31.9 146.003 32.0587 146.134 32.2174C146.266 32.3761 146.529 32.5348 146.661 32.6935C146.793 32.8522 146.924 32.8522 147.056 33.0109C147.206 33.207 147.384 33.3683 147.582 33.4871C147.846 33.6458 147.977 33.9632 148.241 34.1219L149.294 35.3915C149.557 35.8677 149.952 36.3438 150.215 36.8199C150.347 37.1373 150.479 37.296 150.61 37.6134C150.61 37.7721 150.742 37.7721 150.742 37.9308C151.795 40.6289 152.453 43.4856 152.322 46.501C152.19 51.5796 150.61 57.1343 147.714 61.7368M173.648 15.2358L172.858 21.9015L171.41 33.3284L167.724 61.5781C167.724 61.8955 167.592 62.2129 167.592 62.5303V63.6413C167.592 63.8 167.724 63.9587 167.724 64.1174V64.2761C167.724 64.4348 167.855 64.5935 167.987 64.7522L168.514 65.3871C169.04 65.8632 169.698 66.0219 170.357 66.0219C169.83 66.9741 169.172 67.7677 168.382 68.2438C168.25 68.2438 168.25 68.4025 168.119 68.4025C167.987 68.5612 167.724 68.7199 167.592 68.8786C167.46 69.0373 167.329 69.0373 167.197 69.0373C167.065 69.196 166.802 69.196 166.671 69.3547C166.407 69.5134 166.012 69.6721 165.617 69.8308C165.486 69.8308 165.354 69.9896 165.091 69.9896C164.828 70.1483 164.564 70.1483 164.301 70.1483C164.169 70.1483 164.038 70.1483 163.774 70.307C163.511 70.307 163.248 70.4657 162.853 70.4657H158.904C158.772 70.4657 158.64 70.4657 158.64 70.307C158.509 70.307 158.509 70.307 158.377 70.1483C158.245 70.1483 158.114 69.9896 158.114 69.9896C158.114 69.9896 157.982 69.9896 157.982 69.8308C157.851 69.8308 157.719 69.6721 157.587 69.6721H157.456C156.929 69.3547 156.402 68.8786 156.008 68.2438V68.0851C155.876 67.9264 155.876 67.7677 155.744 67.609C155.744 67.609 155.744 67.4503 155.613 67.4503C155.481 67.2915 155.481 67.1328 155.481 66.9741V66.8154C155.481 66.6567 155.349 66.498 155.349 66.1806V66.0219C155.349 65.8632 155.218 65.5458 155.218 65.3871V64.4348C155.218 63.6413 155.218 63.0065 155.349 62.2129L160.747 21.7428C160.878 21.2667 160.878 20.7905 160.878 20.1557C161.142 18.2512 161.273 16.5055 161.405 14.601V9.99851C161.668 9.99851 161.8 9.8398 162.063 9.8398C162.326 9.8398 162.59 9.6811 162.853 9.6811C163.248 9.52239 163.774 9.52239 164.301 9.36368C164.564 9.36368 164.828 9.36368 165.091 9.20497C165.881 9.04627 166.671 9.04627 167.592 8.88757C168.25 8.88757 168.777 8.72886 169.435 8.72886C171.015 8.57015 172.726 8.57015 174.306 8.57015C174.306 9.8398 174.174 11.4269 174.174 13.0139C173.779 14.1249 173.648 14.7597 173.648 15.2358M209.586 66.1806C208.006 69.0373 204.583 70.9418 200.503 70.9418H199.186C198.791 70.9418 198.396 70.7831 198.001 70.6244L196.817 70.1483C194.974 69.196 193.92 66.9741 194.447 62.6891L194.579 61.8955C194.447 62.3716 194.184 62.6891 193.92 63.1652C193.526 63.9587 192.999 64.7522 192.604 65.3871C192.077 66.0219 191.551 66.6567 191.024 67.1328C190.761 67.4502 190.498 67.609 190.234 67.9264C189.694 68.4064 189.122 68.8311 188.523 69.196C187.47 69.8308 186.285 70.4657 185.1 70.7831C184.574 70.9418 184.047 71.1005 183.521 71.1005C182.994 71.1005 182.599 71.2592 182.073 71.2592H180.888C180.756 71.2592 180.493 71.2592 180.361 71.1005C180.23 71.1005 180.098 71.1005 179.966 70.9418C179.835 70.9418 179.703 70.7831 179.571 70.7831C179.44 70.7831 179.308 70.6244 179.177 70.6244C179.177 70.6244 179.045 70.6244 179.045 70.4657C176.017 68.8786 175.096 64.5935 175.886 58.8801L177.992 42.692C177.992 42.2159 178.123 41.7398 178.123 41.4224V40.9463C178.123 40.6289 178.123 40.4701 178.255 40.1527V38.8831C178.387 37.9308 178.387 37.1373 178.387 36.1851V33.6458C178.387 32.6935 178.387 31.9 178.255 30.7891C178.387 30.7891 178.518 30.6303 178.782 30.6303C178.913 30.6303 179.045 30.6303 179.308 30.4716H191.288C191.419 33.9632 190.761 38.7244 190.234 43.1682L188.392 56.8169C188.392 57.1343 188.128 59.5149 188.128 60.1497C188.128 60.7846 188.128 61.5781 188.26 62.2129C188.26 62.5303 188.392 62.8478 188.523 63.3239C188.655 63.4826 188.786 63.8 188.918 63.8H189.05C189.445 63.8 190.103 63.3239 190.893 62.3716C192.077 60.9433 192.999 59.1975 193.789 57.4517C194.052 56.6582 194.447 56.0234 194.71 55.0711C194.974 54.2776 195.237 53.3254 195.5 52.5318C195.632 52.0557 195.763 51.5796 195.763 51.1035L196.685 43.3269C196.817 42.2159 196.948 41.2637 197.08 40.3114L197.475 35.8677C197.606 34.4393 197.738 32.8522 197.738 31.1065C199.318 30.9478 205.505 29.9955 210.244 30.1542C210.112 34.4393 209.718 38.7244 209.059 43.0095L206.558 62.0542C206.558 64.7522 207.611 66.1806 209.586 66.1806M216.958 61.102C216.958 60.1498 216.958 59.1975 217.089 58.404L219.722 38.5657C219.196 38.5657 218.932 38.7244 218.669 38.7244C218.011 38.8831 217.748 38.8831 217.484 39.0418C217.089 39.2005 216.563 39.2005 216.168 39.3592C215.773 36.5223 215.773 33.6259 216.168 30.7891C216.695 30.7891 217.221 30.7891 218.011 30.6303H221.17C222.092 27.6149 223.54 25.0756 224.067 21.5841C224.856 21.4254 225.909 21.2667 226.963 21.108C227.489 21.108 227.752 20.9493 228.147 20.9493C228.542 20.9493 228.937 20.9493 229.464 20.7906C230.78 20.6318 232.228 20.6318 233.94 20.6318C233.808 23.3299 233.545 26.6627 233.15 30.6303H235.519C239.205 30.6303 240.653 30.1542 241.838 29.0433C242.496 30.4716 242.891 32.0587 242.891 33.6458C242.891 35.8677 242.365 37.296 236.573 37.4547H232.228L229.595 57.293V58.5627C229.595 61.2607 230.649 63.4826 232.36 63.4826C235.124 63.4826 235.783 60.9433 236.836 60.9433C239.337 61.4194 240.785 63.1652 240.785 63.1652C238.942 67.4502 234.203 71.4179 229.201 71.4179C221.565 71.2592 217.221 67.1328 216.958 61.102V61.102Z" fill="white"/>
</svg>
