<svg width="60" height="60" viewBox="0 0 60 60" fill="none" xmlns="http://www.w3.org/2000/svg">
<rect width="60" height="60" rx="10" fill="#D9D9D9"/>
<g clip-path="url(#clip0_3_155)">
<path d="M29.9993 45.9988L34.1957 22.2945C38.1958 22.2945 39.4569 22.7347 39.6406 24.5329C39.6406 24.5329 42.3248 23.5289 43.6783 21.4877C38.3966 19.0292 33.0898 18.9192 33.0898 18.9192L29.9936 22.7014H29.9993L26.902 18.9192C26.902 18.9192 21.594 19.0338 16.3135 21.4888C17.6659 23.5301 20.3512 24.5341 20.3512 24.5341C20.5338 22.7358 21.7949 22.2957 25.7687 22.2923L29.9993 45.9988Z" fill="#E31937"/>
<path d="M29.9994 17.819C34.2688 17.7857 39.1556 18.4826 44.1588 20.6717C44.8276 19.4625 44.9988 18.9284 44.9988 18.9284C35.3785 15.0144 24.6191 15.0144 14.9988 18.9284C15.2399 19.5276 15.5205 20.11 15.8387 20.6717C20.842 18.4883 25.7288 17.7915 29.9994 17.819Z" fill="#E31937"/>
</g>
<defs>
<clipPath id="clip0_3_155">
<rect width="30" height="30" fill="white" transform="translate(15 16)"/>
</clipPath>
</defs>
</svg>
